<svg width="832" height="204" viewBox="0 0 832 204" fill="none" xmlns="http://www.w3.org/2000/svg">
<rect x="1" y="1" width="20" height="20" rx="1" fill="#EBEDF0" stroke="#E3E5E8" stroke-width="2"/>
<rect x="1" y="31.5979" width="20" height="20" rx="1" fill="#EBEDF0" stroke="#E3E5E8" stroke-width="2"/>
<rect x="1" y="61.8034" width="20" height="20" rx="1" fill="#EBEDF0" stroke="#E3E5E8" stroke-width="2"/>
<rect x="1" y="92.0088" width="20" height="20" rx="1" fill="#EBEDF0" stroke="#E3E5E8" stroke-width="2"/>
<rect x="1" y="122.214" width="20" height="20" rx="1" fill="#EBEDF0" stroke="#E3E5E8" stroke-width="2"/>
<rect x="1" y="152.42" width="20" height="20" rx="1" fill="#EBEDF0" stroke="#E3E5E8" stroke-width="2"/>
<rect x="1" y="182.625" width="20" height="20" rx="1" fill="#EBEDF0" stroke="#E3E5E8" stroke-width="2"/>
<rect x="31" y="1" width="20" height="20" rx="1" fill="#EBEDF0" stroke="#E3E5E8" stroke-width="2"/>
<rect x="31" y="31.5979" width="20" height="20" rx="1" fill="#EBEDF0" stroke="#E3E5E8" stroke-width="2"/>
<rect x="31" y="61.8034" width="20" height="20" rx="1" fill="#EBEDF0" stroke="#E3E5E8" stroke-width="2"/>
<rect x="31" y="92.0088" width="20" height="20" rx="1" fill="#EBEDF0" stroke="#E3E5E8" stroke-width="2"/>
<rect x="31" y="122.214" width="20" height="20" rx="1" fill="#EBEDF0" stroke="#E3E5E8" stroke-width="2"/>
<rect x="31" y="152.42" width="20" height="20" rx="1" fill="#EBEDF0" stroke="#E3E5E8" stroke-width="2"/>
<rect x="31" y="182.625" width="20" height="20" rx="1" fill="#EBEDF0" stroke="#E3E5E8" stroke-width="2"/>
<rect x="61" y="1" width="20" height="20" rx="1" fill="#EBEDF0" stroke="#E3E5E8" stroke-width="2"/>
<rect x="61" y="31.5979" width="20" height="20" rx="1" fill="#EBEDF0" stroke="#E3E5E8" stroke-width="2"/>
<rect x="61" y="61.8034" width="20" height="20" rx="1" fill="#EBEDF0" stroke="#E3E5E8" stroke-width="2"/>
<rect x="61" y="92.0088" width="20" height="20" rx="1" fill="#EBEDF0" stroke="#E3E5E8" stroke-width="2"/>
<rect x="61" y="122.214" width="20" height="20" rx="1" fill="#EBEDF0" stroke="#E3E5E8" stroke-width="2"/>
<rect x="61" y="152.42" width="20" height="20" rx="1" fill="#EBEDF0" stroke="#E3E5E8" stroke-width="2"/>
<rect x="61" y="182.625" width="20" height="20" rx="1" fill="#EBEDF0" stroke="#E3E5E8" stroke-width="2"/>
<rect x="91" y="1" width="20" height="20" rx="1" fill="#EBEDF0" stroke="#E3E5E8" stroke-width="2"/>
<path d="M92 92.0088H110C110.552 92.0088 111 92.4565 111 93.0088V111.009C111 111.561 110.552 112.009 110 112.009H92C91.4477 112.009 91 111.561 91 111.009V93.0088C91 92.4565 91.4477 92.0088 92 92.0088Z" fill="#40C463" stroke="#3EBD60" stroke-width="2"/>
<path d="M92 122.214H110C110.552 122.214 111 122.662 111 123.214V141.214C111 141.767 110.552 142.214 110 142.214H92C91.4477 142.214 91 141.767 91 141.214V123.214C91 122.662 91.4477 122.214 92 122.214Z" fill="#40C463" stroke="#3EBD60" stroke-width="2"/>
<path d="M92 152.42H110C110.552 152.42 111 152.868 111 153.42V171.42C111 171.972 110.552 172.42 110 172.42H92C91.4477 172.42 91 171.972 91 171.42V153.42C91 152.868 91.4477 152.42 92 152.42Z" fill="#40C463" stroke="#3EBD60" stroke-width="2"/>
<rect x="91" y="61.8" width="20" height="20" rx="1" fill="#40C463" stroke="#3EBD60" stroke-width="2"/>
<rect x="91" y="31.5979" width="20" height="20" rx="1" fill="#40C463" stroke="#3EBD60" stroke-width="2"/>
<rect x="91" y="182.625" width="20" height="20" rx="1" fill="#EBEDF0" stroke="#E3E5E8" stroke-width="2"/>
<rect x="361" y="1" width="20" height="20" rx="1" fill="#EBEDF0" stroke="#E3E5E8" stroke-width="2"/>
<path d="M362 92.0088H380C380.552 92.0088 381 92.4565 381 93.0088V111.009C381 111.561 380.552 112.009 380 112.009H362C361.448 112.009 361 111.561 361 111.009V93.0088C361 92.4565 361.448 92.0088 362 92.0088Z" fill="#40C463" stroke="#3EBD60" stroke-width="2"/>
<path d="M362 122.214H380C380.552 122.214 381 122.662 381 123.214V141.214C381 141.767 380.552 142.214 380 142.214H362C361.448 142.214 361 141.767 361 141.214V123.214C361 122.662 361.448 122.214 362 122.214Z" fill="#40C463" stroke="#3EBD60" stroke-width="2"/>
<path d="M362 152.42H380C380.552 152.42 381 152.868 381 153.42V171.42C381 171.972 380.552 172.42 380 172.42H362C361.448 172.42 361 171.972 361 171.42V153.42C361 152.868 361.448 152.42 362 152.42Z" fill="#40C463" stroke="#3EBD60" stroke-width="2"/>
<rect x="361" y="61.8" width="20" height="20" rx="1" fill="#40C463" stroke="#3EBD60" stroke-width="2"/>
<rect x="361" y="31.5979" width="20" height="20" rx="1" fill="#40C463" stroke="#3EBD60" stroke-width="2"/>
<rect x="361" y="182.625" width="20" height="20" rx="1" fill="#EBEDF0" stroke="#E3E5E8" stroke-width="2"/>
<rect x="181" y="1" width="20" height="20" rx="1" fill="#EBEDF0" stroke="#E3E5E8" stroke-width="2"/>
<path d="M182 92.0088H200C200.552 92.0088 201 92.4565 201 93.0088V111.009C201 111.561 200.552 112.009 200 112.009H182C181.448 112.009 181 111.561 181 111.009V93.0088C181 92.4565 181.448 92.0088 182 92.0088Z" fill="#40C463" stroke="#3EBD60" stroke-width="2"/>
<path d="M182 122.214H200C200.552 122.214 201 122.662 201 123.214V141.214C201 141.767 200.552 142.214 200 142.214H182C181.448 142.214 181 141.767 181 141.214V123.214C181 122.662 181.448 122.214 182 122.214Z" fill="#40C463" stroke="#3EBD60" stroke-width="2"/>
<path d="M182 152.42H200C200.552 152.42 201 152.868 201 153.42V171.42C201 171.972 200.552 172.42 200 172.42H182C181.448 172.42 181 171.972 181 171.42V153.42C181 152.868 181.448 152.42 182 152.42Z" fill="#40C463" stroke="#3EBD60" stroke-width="2"/>
<rect x="181" y="61.8" width="20" height="20" rx="1" fill="#40C463" stroke="#3EBD60" stroke-width="2"/>
<rect x="181" y="31.5979" width="20" height="20" rx="1" fill="#40C463" stroke="#3EBD60" stroke-width="2"/>
<rect x="181" y="182.625" width="20" height="20" rx="1" fill="#EBEDF0" stroke="#E3E5E8" stroke-width="2"/>
<rect x="241" y="1" width="20" height="20" rx="1" fill="#EBEDF0" stroke="#E3E5E8" stroke-width="2"/>
<path d="M242 92.0088H260C260.552 92.0088 261 92.4565 261 93.0088V111.009C261 111.561 260.552 112.009 260 112.009H242C241.448 112.009 241 111.561 241 111.009V93.0088C241 92.4565 241.448 92.0088 242 92.0088Z" fill="#40C463" stroke="#3EBD60" stroke-width="2"/>
<path d="M242 122.214H260C260.552 122.214 261 122.662 261 123.214V141.214C261 141.767 260.552 142.214 260 142.214H242C241.448 142.214 241 141.767 241 141.214V123.214C241 122.662 241.448 122.214 242 122.214Z" fill="#40C463" stroke="#3EBD60" stroke-width="2"/>
<path d="M242 152.42H260C260.552 152.42 261 152.868 261 153.42V171.42C261 171.972 260.552 172.42 260 172.42H242C241.448 172.42 241 171.972 241 171.42V153.42C241 152.868 241.448 152.42 242 152.42Z" fill="#40C463" stroke="#3EBD60" stroke-width="2"/>
<rect x="241" y="61.8" width="20" height="20" rx="1" fill="#40C463" stroke="#3EBD60" stroke-width="2"/>
<rect x="241" y="31.5979" width="20" height="20" rx="1" fill="#40C463" stroke="#3EBD60" stroke-width="2"/>
<rect x="241" y="182.625" width="20" height="20" rx="1" fill="#EBEDF0" stroke="#E3E5E8" stroke-width="2"/>
<rect x="121" y="1" width="20" height="20" rx="1" fill="#EBEDF0" stroke="#E3E5E8" stroke-width="2"/>
<rect x="121" y="31.5979" width="20" height="20" rx="1" fill="#EBEDF0" stroke="#E3E5E8" stroke-width="2"/>
<rect x="121" y="61.8034" width="20" height="20" rx="1" fill="#EBEDF0" stroke="#E3E5E8" stroke-width="2"/>
<path d="M122 92.0088H140C140.552 92.0088 141 92.4565 141 93.0088V111.009C141 111.561 140.552 112.009 140 112.009H122C121.448 112.009 121 111.561 121 111.009V93.0088C121 92.4565 121.448 92.0088 122 92.0088Z" fill="#40C463" stroke="#3EBD60" stroke-width="2"/>
<rect x="121" y="122.214" width="20" height="20" rx="1" fill="#EBEDF0" stroke="#E3E5E8" stroke-width="2"/>
<rect x="121" y="152.42" width="20" height="20" rx="1" fill="#EBEDF0" stroke="#E3E5E8" stroke-width="2"/>
<rect x="121" y="182.625" width="20" height="20" rx="1" fill="#EBEDF0" stroke="#E3E5E8" stroke-width="2"/>
<rect x="151" y="1" width="20" height="20" rx="1" fill="#EBEDF0" stroke="#E3E5E8" stroke-width="2"/>
<rect x="151" y="31.5979" width="20" height="20" rx="1" fill="#EBEDF0" stroke="#E3E5E8" stroke-width="2"/>
<rect x="151" y="61.8034" width="20" height="20" rx="1" fill="#EBEDF0" stroke="#E3E5E8" stroke-width="2"/>
<path d="M152 92.0088H170C170.552 92.0088 171 92.4565 171 93.0088V111.009C171 111.561 170.552 112.009 170 112.009H152C151.448 112.009 151 111.561 151 111.009V93.0088C151 92.4565 151.448 92.0088 152 92.0088Z" fill="#40C463" stroke="#3EBD60" stroke-width="2"/>
<rect x="151" y="122.214" width="20" height="20" rx="1" fill="#EBEDF0" stroke="#E3E5E8" stroke-width="2"/>
<rect x="151" y="152.42" width="20" height="20" rx="1" fill="#EBEDF0" stroke="#E3E5E8" stroke-width="2"/>
<rect x="151" y="182.625" width="20" height="20" rx="1" fill="#EBEDF0" stroke="#E3E5E8" stroke-width="2"/>
<rect x="211" y="1" width="20" height="20" rx="1" fill="#EBEDF0" stroke="#E3E5E8" stroke-width="2"/>
<rect x="211" y="31.5979" width="20" height="20" rx="1" fill="#EBEDF0" stroke="#E3E5E8" stroke-width="2"/>
<rect x="211" y="61.8034" width="20" height="20" rx="1" fill="#EBEDF0" stroke="#E3E5E8" stroke-width="2"/>
<rect x="211" y="92.0088" width="20" height="20" rx="1" fill="#EBEDF0" stroke="#E3E5E8" stroke-width="2"/>
<rect x="211" y="122.214" width="20" height="20" rx="1" fill="#EBEDF0" stroke="#E3E5E8" stroke-width="2"/>
<rect x="211" y="152.42" width="20" height="20" rx="1" fill="#EBEDF0" stroke="#E3E5E8" stroke-width="2"/>
<rect x="211" y="182.625" width="20" height="20" rx="1" fill="#EBEDF0" stroke="#E3E5E8" stroke-width="2"/>
<rect x="271" y="1" width="20" height="20" rx="1" fill="#EBEDF0" stroke="#E3E5E8" stroke-width="2"/>
<rect x="271" y="61.8034" width="20" height="20" rx="1" fill="#EBEDF0" stroke="#E3E5E8" stroke-width="2"/>
<path d="M272 31.5979H290C290.552 31.5979 291 32.0456 291 32.5979V50.5979C291 51.1502 290.552 51.5979 290 51.5979H272C271.448 51.5979 271 51.1502 271 50.5979V32.5979C271 32.0456 271.448 31.5979 272 31.5979Z" fill="#40C463" stroke="#3EBD60" stroke-width="2"/>
<path d="M272 92.0088H290C290.552 92.0088 291 92.4565 291 93.0088V111.009C291 111.561 290.552 112.009 290 112.009H272C271.448 112.009 271 111.561 271 111.009V93.0088C271 92.4565 271.448 92.0088 272 92.0088Z" fill="#40C463" stroke="#3EBD60" stroke-width="2"/>
<path d="M272 152.42H290C290.552 152.42 291 152.868 291 153.42V171.42C291 171.972 290.552 172.42 290 172.42H272C271.448 172.42 271 171.972 271 171.42V153.42C271 152.868 271.448 152.42 272 152.42Z" fill="#40C463" stroke="#3EBD60" stroke-width="2"/>
<rect x="271" y="122.214" width="20" height="20" rx="1" fill="#EBEDF0" stroke="#E3E5E8" stroke-width="2"/>
<rect x="271" y="182.625" width="20" height="20" rx="1" fill="#EBEDF0" stroke="#E3E5E8" stroke-width="2"/>
<rect x="301" y="1" width="20" height="20" rx="1" fill="#EBEDF0" stroke="#E3E5E8" stroke-width="2"/>
<rect x="301" y="61.8034" width="20" height="20" rx="1" fill="#EBEDF0" stroke="#E3E5E8" stroke-width="2"/>
<path d="M302 31.5979H320C320.552 31.5979 321 32.0456 321 32.5979V50.5979C321 51.1502 320.552 51.5979 320 51.5979H302C301.448 51.5979 301 51.1502 301 50.5979V32.5979C301 32.0456 301.448 31.5979 302 31.5979Z" fill="#40C463" stroke="#3EBD60" stroke-width="2"/>
<path d="M302 92.0088H320C320.552 92.0088 321 92.4565 321 93.0088V111.009C321 111.561 320.552 112.009 320 112.009H302C301.448 112.009 301 111.561 301 111.009V93.0088C301 92.4565 301.448 92.0088 302 92.0088Z" fill="#40C463" stroke="#3EBD60" stroke-width="2"/>
<path d="M302 152.42H320C320.552 152.42 321 152.868 321 153.42V171.42C321 171.972 320.552 172.42 320 172.42H302C301.448 172.42 301 171.972 301 171.42V153.42C301 152.868 301.448 152.42 302 152.42Z" fill="#40C463" stroke="#3EBD60" stroke-width="2"/>
<rect x="301" y="122.214" width="20" height="20" rx="1" fill="#EBEDF0" stroke="#E3E5E8" stroke-width="2"/>
<rect x="301" y="182.625" width="20" height="20" rx="1" fill="#EBEDF0" stroke="#E3E5E8" stroke-width="2"/>
<rect x="331" y="1" width="20" height="20" rx="1" fill="#EBEDF0" stroke="#E3E5E8" stroke-width="2"/>
<rect x="331" y="31.5979" width="20" height="20" rx="1" fill="#EBEDF0" stroke="#E3E5E8" stroke-width="2"/>
<rect x="331" y="61.8034" width="20" height="20" rx="1" fill="#EBEDF0" stroke="#E3E5E8" stroke-width="2"/>
<rect x="331" y="92.0088" width="20" height="20" rx="1" fill="#EBEDF0" stroke="#E3E5E8" stroke-width="2"/>
<rect x="331" y="122.214" width="20" height="20" rx="1" fill="#EBEDF0" stroke="#E3E5E8" stroke-width="2"/>
<rect x="331" y="152.42" width="20" height="20" rx="1" fill="#EBEDF0" stroke="#E3E5E8" stroke-width="2"/>
<rect x="331" y="182.625" width="20" height="20" rx="1" fill="#EBEDF0" stroke="#E3E5E8" stroke-width="2"/>
<rect x="391" y="1" width="20" height="20" rx="1" fill="#EBEDF0" stroke="#E3E5E8" stroke-width="2"/>
<rect x="391" y="31.5979" width="20" height="20" rx="1" fill="#EBEDF0" stroke="#E3E5E8" stroke-width="2"/>
<rect x="391" y="61.8034" width="20" height="20" rx="1" fill="#EBEDF0" stroke="#E3E5E8" stroke-width="2"/>
<rect x="391" y="92.0088" width="20" height="20" rx="1" fill="#EBEDF0" stroke="#E3E5E8" stroke-width="2"/>
<path d="M392 152.419H410C410.552 152.419 411 152.867 411 153.419V171.419C411 171.972 410.552 172.419 410 172.419H392C391.448 172.419 391 171.972 391 171.419V153.419C391 152.867 391.448 152.419 392 152.419Z" fill="#40C463" stroke="#3EBD60" stroke-width="2"/>
<rect x="391" y="122.214" width="20" height="20" rx="1" fill="#EBEDF0" stroke="#E3E5E8" stroke-width="2"/>
<rect x="391" y="182.625" width="20" height="20" rx="1" fill="#EBEDF0" stroke="#E3E5E8" stroke-width="2"/>
<rect x="421" y="1" width="20" height="20" rx="1" fill="#EBEDF0" stroke="#E3E5E8" stroke-width="2"/>
<rect x="421" y="31.5979" width="20" height="20" rx="1" fill="#EBEDF0" stroke="#E3E5E8" stroke-width="2"/>
<rect x="421" y="61.8034" width="20" height="20" rx="1" fill="#EBEDF0" stroke="#E3E5E8" stroke-width="2"/>
<rect x="421" y="92.0088" width="20" height="20" rx="1" fill="#EBEDF0" stroke="#E3E5E8" stroke-width="2"/>
<path d="M422 152.419H440C440.552 152.419 441 152.867 441 153.419V171.419C441 171.972 440.552 172.419 440 172.419H422C421.448 172.419 421 171.972 421 171.419V153.419C421 152.867 421.448 152.419 422 152.419Z" fill="#40C463" stroke="#3EBD60" stroke-width="2"/>
<rect x="421" y="122.214" width="20" height="20" rx="1" fill="#EBEDF0" stroke="#E3E5E8" stroke-width="2"/>
<rect x="421" y="182.625" width="20" height="20" rx="1" fill="#EBEDF0" stroke="#E3E5E8" stroke-width="2"/>
<rect x="481" y="1" width="20" height="20" rx="1" fill="#EBEDF0" stroke="#E3E5E8" stroke-width="2"/>
<path d="M482 92.0088H500C500.552 92.0088 501 92.4565 501 93.0088V111.009C501 111.561 500.552 112.009 500 112.009H482C481.448 112.009 481 111.561 481 111.009V93.0088C481 92.4565 481.448 92.0088 482 92.0088Z" fill="#40C463" stroke="#3EBD60" stroke-width="2"/>
<path d="M482 122.214H500C500.552 122.214 501 122.662 501 123.214V141.214C501 141.767 500.552 142.214 500 142.214H482C481.448 142.214 481 141.767 481 141.214V123.214C481 122.662 481.448 122.214 482 122.214Z" fill="#40C463" stroke="#3EBD60" stroke-width="2"/>
<path d="M482 152.42H500C500.552 152.42 501 152.868 501 153.42V171.42C501 171.972 500.552 172.42 500 172.42H482C481.448 172.42 481 171.972 481 171.42V153.42C481 152.868 481.448 152.42 482 152.42Z" fill="#40C463" stroke="#3EBD60" stroke-width="2"/>
<rect x="481" y="61.8" width="20" height="20" rx="1" fill="#40C463" stroke="#3EBD60" stroke-width="2"/>
<rect x="481" y="31.5979" width="20" height="20" rx="1" fill="#40C463" stroke="#3EBD60" stroke-width="2"/>
<rect x="481" y="182.625" width="20" height="20" rx="1" fill="#EBEDF0" stroke="#E3E5E8" stroke-width="2"/>
<rect x="601" y="1" width="20" height="20" rx="1" fill="#EBEDF0" stroke="#E3E5E8" stroke-width="2"/>
<rect x="601" y="31.6" width="20" height="20" rx="1" fill="#EBEDF0" stroke="#E3E5E8" stroke-width="2"/>
<path d="M602 92.0088H620C620.552 92.0088 621 92.4565 621 93.0088V111.009C621 111.561 620.552 112.009 620 112.009H602C601.448 112.009 601 111.561 601 111.009V93.0088C601 92.4565 601.448 92.0088 602 92.0088Z" fill="#40C463" stroke="#3EBD60" stroke-width="2"/>
<path d="M602 122.214H620C620.552 122.214 621 122.662 621 123.214V141.214C621 141.767 620.552 142.214 620 142.214H602C601.448 142.214 601 141.767 601 141.214V123.214C601 122.662 601.448 122.214 602 122.214Z" fill="#40C463" stroke="#3EBD60" stroke-width="2"/>
<rect x="601" y="61.8" width="20" height="20" rx="1" fill="#40C463" stroke="#3EBD60" stroke-width="2"/>
<rect x="601" y="182.625" width="20" height="20" rx="1" fill="#EBEDF0" stroke="#E3E5E8" stroke-width="2"/>
<rect x="601" y="152.42" width="20" height="20" rx="1" fill="#EBEDF0" stroke="#E3E5E8" stroke-width="2"/>
<rect x="721" y="1" width="20" height="20" rx="1" fill="#EBEDF0" stroke="#E3E5E8" stroke-width="2"/>
<rect x="721" y="31.6" width="20" height="20" rx="1" fill="#EBEDF0" stroke="#E3E5E8" stroke-width="2"/>
<path d="M722 92.0088H740C740.552 92.0088 741 92.4565 741 93.0088V111.009C741 111.561 740.552 112.009 740 112.009H722C721.448 112.009 721 111.561 721 111.009V93.0088C721 92.4565 721.448 92.0088 722 92.0088Z" fill="#40C463" stroke="#3EBD60" stroke-width="2"/>
<path d="M722 122.214H740C740.552 122.214 741 122.662 741 123.214V141.214C741 141.767 740.552 142.214 740 142.214H722C721.448 142.214 721 141.767 721 141.214V123.214C721 122.662 721.448 122.214 722 122.214Z" fill="#40C463" stroke="#3EBD60" stroke-width="2"/>
<rect x="721" y="61.8" width="20" height="20" rx="1" fill="#40C463" stroke="#3EBD60" stroke-width="2"/>
<rect x="721" y="182.625" width="20" height="20" rx="1" fill="#EBEDF0" stroke="#E3E5E8" stroke-width="2"/>
<rect x="721" y="152.42" width="20" height="20" rx="1" fill="#EBEDF0" stroke="#E3E5E8" stroke-width="2"/>
<rect x="511" y="1" width="20" height="20" rx="1" fill="#EBEDF0" stroke="#E3E5E8" stroke-width="2"/>
<rect x="511" y="31.5979" width="20" height="20" rx="1" fill="#EBEDF0" stroke="#E3E5E8" stroke-width="2"/>
<rect x="511" y="61.8034" width="20" height="20" rx="1" fill="#EBEDF0" stroke="#E3E5E8" stroke-width="2"/>
<rect x="511" y="92.0088" width="20" height="20" rx="1" fill="#EBEDF0" stroke="#E3E5E8" stroke-width="2"/>
<path d="M512 152.419H530C530.552 152.419 531 152.867 531 153.419V171.419C531 171.972 530.552 172.419 530 172.419H512C511.448 172.419 511 171.972 511 171.419V153.419C511 152.867 511.448 152.419 512 152.419Z" fill="#40C463" stroke="#3EBD60" stroke-width="2"/>
<rect x="511" y="122.214" width="20" height="20" rx="1" fill="#EBEDF0" stroke="#E3E5E8" stroke-width="2"/>
<rect x="511" y="182.625" width="20" height="20" rx="1" fill="#EBEDF0" stroke="#E3E5E8" stroke-width="2"/>
<rect x="541" y="1" width="20" height="20" rx="1" fill="#EBEDF0" stroke="#E3E5E8" stroke-width="2"/>
<rect x="541" y="31.5979" width="20" height="20" rx="1" fill="#EBEDF0" stroke="#E3E5E8" stroke-width="2"/>
<rect x="541" y="61.8034" width="20" height="20" rx="1" fill="#EBEDF0" stroke="#E3E5E8" stroke-width="2"/>
<rect x="541" y="92.0088" width="20" height="20" rx="1" fill="#EBEDF0" stroke="#E3E5E8" stroke-width="2"/>
<path d="M542 152.419H560C560.552 152.419 561 152.867 561 153.419V171.419C561 171.972 560.552 172.419 560 172.419H542C541.448 172.419 541 171.972 541 171.419V153.419C541 152.867 541.448 152.419 542 152.419Z" fill="#40C463" stroke="#3EBD60" stroke-width="2"/>
<rect x="541" y="122.214" width="20" height="20" rx="1" fill="#EBEDF0" stroke="#E3E5E8" stroke-width="2"/>
<rect x="541" y="182.625" width="20" height="20" rx="1" fill="#EBEDF0" stroke="#E3E5E8" stroke-width="2"/>
<rect x="451" y="1" width="20" height="20" rx="1" fill="#EBEDF0" stroke="#E3E5E8" stroke-width="2"/>
<rect x="451" y="31.5979" width="20" height="20" rx="1" fill="#EBEDF0" stroke="#E3E5E8" stroke-width="2"/>
<rect x="451" y="61.8034" width="20" height="20" rx="1" fill="#EBEDF0" stroke="#E3E5E8" stroke-width="2"/>
<rect x="451" y="92.0088" width="20" height="20" rx="1" fill="#EBEDF0" stroke="#E3E5E8" stroke-width="2"/>
<rect x="451" y="122.214" width="20" height="20" rx="1" fill="#EBEDF0" stroke="#E3E5E8" stroke-width="2"/>
<rect x="451" y="152.42" width="20" height="20" rx="1" fill="#EBEDF0" stroke="#E3E5E8" stroke-width="2"/>
<rect x="451" y="182.625" width="20" height="20" rx="1" fill="#EBEDF0" stroke="#E3E5E8" stroke-width="2"/>
<rect x="571" y="1" width="20" height="20" rx="1" fill="#EBEDF0" stroke="#E3E5E8" stroke-width="2"/>
<rect x="571" y="31.5979" width="20" height="20" rx="1" fill="#EBEDF0" stroke="#E3E5E8" stroke-width="2"/>
<rect x="571" y="61.8034" width="20" height="20" rx="1" fill="#EBEDF0" stroke="#E3E5E8" stroke-width="2"/>
<rect x="571" y="92.0088" width="20" height="20" rx="1" fill="#EBEDF0" stroke="#E3E5E8" stroke-width="2"/>
<rect x="571" y="122.214" width="20" height="20" rx="1" fill="#EBEDF0" stroke="#E3E5E8" stroke-width="2"/>
<rect x="571" y="152.42" width="20" height="20" rx="1" fill="#EBEDF0" stroke="#E3E5E8" stroke-width="2"/>
<rect x="571" y="182.625" width="20" height="20" rx="1" fill="#EBEDF0" stroke="#E3E5E8" stroke-width="2"/>
<rect x="631" y="1" width="20" height="20" rx="1" fill="#EBEDF0" stroke="#E3E5E8" stroke-width="2"/>
<rect x="631" y="61.8034" width="20" height="20" rx="1" fill="#EBEDF0" stroke="#E3E5E8" stroke-width="2"/>
<rect x="631" y="92.0088" width="20" height="20" rx="1" fill="#EBEDF0" stroke="#E3E5E8" stroke-width="2"/>
<path d="M632 31.6H650C650.552 31.6 651 32.0477 651 32.6V50.6C651 51.1523 650.552 51.6 650 51.6H632C631.448 51.6 631 51.1523 631 50.6V32.6C631 32.0477 631.448 31.6 632 31.6Z" fill="#40C463" stroke="#3EBD60" stroke-width="2"/>
<path d="M632 152.42H650C650.552 152.42 651 152.868 651 153.42V171.42C651 171.972 650.552 172.42 650 172.42H632C631.448 172.42 631 171.972 631 171.42V153.42C631 152.868 631.448 152.42 632 152.42Z" fill="#40C463" stroke="#3EBD60" stroke-width="2"/>
<rect x="631" y="122.214" width="20" height="20" rx="1" fill="#EBEDF0" stroke="#E3E5E8" stroke-width="2"/>
<rect x="631" y="182.625" width="20" height="20" rx="1" fill="#EBEDF0" stroke="#E3E5E8" stroke-width="2"/>
<rect x="661" y="1" width="20" height="20" rx="1" fill="#EBEDF0" stroke="#E3E5E8" stroke-width="2"/>
<rect x="661" y="61.8034" width="20" height="20" rx="1" fill="#EBEDF0" stroke="#E3E5E8" stroke-width="2"/>
<rect x="661" y="92.0088" width="20" height="20" rx="1" fill="#EBEDF0" stroke="#E3E5E8" stroke-width="2"/>
<path d="M662 31.6H680C680.552 31.6 681 32.0477 681 32.6V50.6C681 51.1523 680.552 51.6 680 51.6H662C661.448 51.6 661 51.1523 661 50.6V32.6C661 32.0477 661.448 31.6 662 31.6Z" fill="#40C463" stroke="#3EBD60" stroke-width="2"/>
<path d="M662 152.42H680C680.552 152.42 681 152.868 681 153.42V171.42C681 171.972 680.552 172.42 680 172.42H662C661.448 172.42 661 171.972 661 171.42V153.42C661 152.868 661.448 152.42 662 152.42Z" fill="#40C463" stroke="#3EBD60" stroke-width="2"/>
<rect x="661" y="122.214" width="20" height="20" rx="1" fill="#EBEDF0" stroke="#E3E5E8" stroke-width="2"/>
<rect x="661" y="182.625" width="20" height="20" rx="1" fill="#EBEDF0" stroke="#E3E5E8" stroke-width="2"/>
<rect x="691" y="1" width="20" height="20" rx="1" fill="#EBEDF0" stroke="#E3E5E8" stroke-width="2"/>
<rect x="691" y="61.8034" width="20" height="20" rx="1" fill="#EBEDF0" stroke="#E3E5E8" stroke-width="2"/>
<rect x="691" y="92.0088" width="20" height="20" rx="1" fill="#EBEDF0" stroke="#E3E5E8" stroke-width="2"/>
<path d="M692 31.6H710C710.552 31.6 711 32.0477 711 32.6V50.6C711 51.1523 710.552 51.6 710 51.6H692C691.448 51.6 691 51.1523 691 50.6V32.6C691 32.0477 691.448 31.6 692 31.6Z" fill="#40C463" stroke="#3EBD60" stroke-width="2"/>
<path d="M692 152.42H710C710.552 152.42 711 152.868 711 153.42V171.42C711 171.972 710.552 172.42 710 172.42H692C691.448 172.42 691 171.972 691 171.42V153.42C691 152.868 691.448 152.42 692 152.42Z" fill="#40C463" stroke="#3EBD60" stroke-width="2"/>
<rect x="691" y="122.214" width="20" height="20" rx="1" fill="#EBEDF0" stroke="#E3E5E8" stroke-width="2"/>
<rect x="691" y="182.625" width="20" height="20" rx="1" fill="#EBEDF0" stroke="#E3E5E8" stroke-width="2"/>
<rect x="751" y="1" width="20" height="20" rx="1" fill="#EBEDF0" stroke="#E3E5E8" stroke-width="2"/>
<rect x="751" y="31.5979" width="20" height="20" rx="1" fill="#EBEDF0" stroke="#E3E5E8" stroke-width="2"/>
<rect x="751" y="61.8034" width="20" height="20" rx="1" fill="#EBEDF0" stroke="#E3E5E8" stroke-width="2"/>
<rect x="751" y="92.0088" width="20" height="20" rx="1" fill="#EBEDF0" stroke="#E3E5E8" stroke-width="2"/>
<rect x="751" y="122.214" width="20" height="20" rx="1" fill="#EBEDF0" stroke="#E3E5E8" stroke-width="2"/>
<rect x="751" y="152.42" width="20" height="20" rx="1" fill="#EBEDF0" stroke="#E3E5E8" stroke-width="2"/>
<rect x="751" y="182.625" width="20" height="20" rx="1" fill="#EBEDF0" stroke="#E3E5E8" stroke-width="2"/>
<rect x="781" y="1" width="20" height="20" rx="1" fill="#EBEDF0" stroke="#E3E5E8" stroke-width="2"/>
<rect x="781" y="31.5979" width="20" height="20" rx="1" fill="#EBEDF0" stroke="#E3E5E8" stroke-width="2"/>
<rect x="781" y="61.8034" width="20" height="20" rx="1" fill="#EBEDF0" stroke="#E3E5E8" stroke-width="2"/>
<rect x="781" y="92.0088" width="20" height="20" rx="1" fill="#EBEDF0" stroke="#E3E5E8" stroke-width="2"/>
<rect x="781" y="122.214" width="20" height="20" rx="1" fill="#EBEDF0" stroke="#E3E5E8" stroke-width="2"/>
<rect x="781" y="152.42" width="20" height="20" rx="1" fill="#EBEDF0" stroke="#E3E5E8" stroke-width="2"/>
<rect x="781" y="182.625" width="20" height="20" rx="1" fill="#EBEDF0" stroke="#E3E5E8" stroke-width="2"/>
<rect x="811" y="1" width="20" height="20" rx="1" fill="#EBEDF0" stroke="#E3E5E8" stroke-width="2"/>
<rect x="811" y="31.5979" width="20" height="20" rx="1" fill="#EBEDF0" stroke="#E3E5E8" stroke-width="2"/>
<rect x="811" y="61.8034" width="20" height="20" rx="1" fill="#EBEDF0" stroke="#E3E5E8" stroke-width="2"/>
<rect x="811" y="92.0088" width="20" height="20" rx="1" fill="#EBEDF0" stroke="#E3E5E8" stroke-width="2"/>
<rect x="811" y="122.214" width="20" height="20" rx="1" fill="#EBEDF0" stroke="#E3E5E8" stroke-width="2"/>
<rect x="811" y="152.42" width="20" height="20" rx="1" fill="#EBEDF0" stroke="#E3E5E8" stroke-width="2"/>
<rect x="811" y="182.625" width="20" height="20" rx="1" fill="#EBEDF0" stroke="#E3E5E8" stroke-width="2"/>
</svg>
